<svg width="102" height="33" viewBox="0 0 102 33" fill="none" xmlns="http://www.w3.org/2000/svg">
<g clip-path="url(#clip0_30_529)">
<path d="M29.4965 16.2319H30.8757V27.5458H29.4929L29.4965 16.2319ZM35.3428 16.2319H37.0921L32.4951 21.5421L37.0589 27.5451H35.3097L30.9478 21.5578L35.3428 16.2319Z" fill="#222222"/>
<path d="M38.3262 20.2238C39.3494 19.5202 40.5617 19.1354 41.8073 19.1189C42.2784 19.0666 42.7541 19.1626 43.1668 19.3934C43.5795 19.6242 43.9082 19.978 44.1062 20.4045C44.282 20.9924 44.3441 21.6079 44.2894 22.2186L44.223 24.9233C44.1898 26.2596 44.2728 26.6053 44.8895 26.9353L44.223 27.8587C43.9461 27.7705 43.6966 27.6135 43.4984 27.4027C43.3001 27.1919 43.1597 26.9343 43.0905 26.6546C42.7977 27.0024 42.4309 27.2819 42.0163 27.4729C41.6016 27.6639 41.1495 27.7618 40.6921 27.7595C38.6436 27.7595 38.0269 26.5224 38.0269 25.4176C38.0269 23.5542 39.6426 22.4657 42.4269 22.4657C42.7768 22.4657 43.0097 22.4821 43.0097 22.4821V21.9051C43.0097 21.1794 42.9766 20.8823 42.7429 20.6195C42.6038 20.4655 42.4308 20.3453 42.2373 20.268C42.0439 20.1907 41.835 20.1585 41.627 20.1738C40.6627 20.2146 39.7359 20.5552 38.9783 21.1473L38.3262 20.2238ZM42.9737 23.3742C42.7573 23.3578 42.5575 23.3413 42.3245 23.3413C40.2262 23.3413 39.476 24.0506 39.476 25.304C39.476 26.2768 39.9593 26.8038 40.9085 26.8038C41.332 26.7966 41.7451 26.6724 42.1011 26.4452C42.4572 26.2181 42.7421 25.8971 42.9239 25.5183L42.9737 23.3742Z" fill="#222222"/>
<path d="M46.954 19.4644L48.2523 19.118C48.4444 19.5368 48.5356 19.994 48.5185 20.4536C48.7717 20.0605 49.1147 19.7317 49.5198 19.4939C49.9248 19.2561 50.3807 19.1158 50.8505 19.0845C51.0039 19.0901 51.1555 19.118 51.3006 19.1673L50.7676 20.5693C50.6501 20.5271 50.5262 20.5049 50.4012 20.5036C49.8792 20.5129 49.3821 20.7263 49.0184 21.0971C48.8364 21.2586 48.6971 21.4618 48.6129 21.6889C48.5286 21.916 48.5019 22.1601 48.5351 22.3999V27.5422H47.2367V21.2093C47.2703 20.613 47.1737 20.0167 46.9532 19.4609" fill="#222222"/>
<path d="M56.8974 19.3325L56.4978 20.3053H54.7666V25.5997C54.7666 26.5068 55.0162 26.8203 55.8327 26.8203C56.1147 26.8353 56.3958 26.7785 56.6493 26.6554L56.8325 27.4803C56.379 27.7087 55.8754 27.8221 55.3668 27.8102C54.9929 27.8173 54.6225 27.7383 54.2848 27.5795C53.7019 27.2989 53.4855 26.7718 53.4855 25.9469V20.3046H52.4036V19.3318H53.4855C53.4855 18.5405 53.619 17.2541 53.619 17.2541L54.9852 16.957C54.8867 17.7451 54.831 18.5378 54.8185 19.3318L56.8974 19.3325Z" fill="#222222"/>
<path d="M57.564 19.3993L58.8962 19.1187L60.8279 24.7759C61.0617 25.4523 61.2275 26.1779 61.2275 26.1779H61.2607C61.3647 25.7083 61.4982 25.2456 61.6603 24.7924L63.5574 19.3329H64.9402L61.8263 27.6285H60.5437L57.564 19.3993Z" fill="#222222"/>
<path d="M72.0062 25.8823L72.5061 26.7072C71.7338 27.3803 70.7362 27.7449 69.7074 27.7299C67.4085 27.7299 66.0286 26.0808 66.0286 23.3597C65.948 22.2375 66.3059 21.1275 67.0284 20.2593C67.3155 19.9245 67.6685 19.6514 68.066 19.4565C68.4634 19.2616 68.8969 19.1492 69.3398 19.1261C69.7827 19.1029 70.2257 19.1696 70.6417 19.322C71.0576 19.4743 71.4378 19.7092 71.7588 20.0121C72.4751 20.7378 72.6749 21.512 72.7081 23.4754V23.6568H67.5283V23.8546C67.4802 24.4777 67.6131 25.1015 67.9113 25.6523C68.1392 25.9816 68.4489 26.2472 68.8106 26.4235C69.1724 26.5998 69.5739 26.6808 69.9764 26.6586C70.73 26.6751 71.4596 26.3961 72.0062 25.8823ZM67.5254 22.6826H71.3231C71.3642 22.0494 71.2318 21.417 70.9401 20.8521C70.7701 20.6181 70.5442 20.4294 70.2827 20.3028C70.0212 20.1762 69.7321 20.1156 69.4412 20.1264C68.259 20.1264 67.5925 20.9835 67.5254 22.6826Z" fill="#222222"/>
<path d="M74.9384 19.4644L76.2368 19.118C76.4291 19.5367 76.5204 19.994 76.5037 20.4536C76.7569 20.0605 77.0998 19.7317 77.5049 19.4939C77.91 19.2561 78.3658 19.1158 78.8357 19.0845C78.989 19.0901 79.1407 19.118 79.2858 19.1673L78.7527 20.5693C78.6352 20.5272 78.5113 20.5049 78.3863 20.5036C77.8643 20.5129 77.3672 20.7263 77.0035 21.0971C76.8215 21.2586 76.6823 21.4618 76.598 21.6889C76.5137 21.916 76.4871 22.1601 76.5203 22.3999V27.5422H75.2218V21.2093C75.2555 20.613 75.1588 20.0167 74.9384 19.4609" fill="#222222"/>
<path d="M80.7184 15.7369L82.0168 15.4897C82.1778 16.1258 82.2505 16.7805 82.2331 17.436V27.5457H80.9348V17.4174C80.9501 16.8491 80.8771 16.2818 80.7184 15.7354M85.4488 19.3308H87.0812L83.8165 22.8933L87.8306 27.5443H86.0994L82.2836 22.8947L85.4488 19.3308Z" fill="#222222"/>
<path d="M94.7597 25.8823L95.2595 26.7072C94.4872 27.3803 93.4896 27.7449 92.4608 27.7299C90.1619 27.7299 88.7821 26.0808 88.7821 23.3597C88.7014 22.2375 89.0593 21.1275 89.7818 20.2593C90.0689 19.9245 90.422 19.6514 90.8194 19.4565C91.2169 19.2616 91.6503 19.1492 92.0932 19.1261C92.5361 19.1029 92.9791 19.1696 93.3951 19.322C93.811 19.4743 94.1912 19.7092 94.5122 20.0121C95.2285 20.7378 95.4283 21.512 95.4615 23.4754V23.6568H90.281V23.8546C90.2329 24.4777 90.3658 25.1015 90.664 25.6523C90.8919 25.9816 91.2016 26.2472 91.5633 26.4235C91.9251 26.5998 92.3266 26.6808 92.7291 26.6586C93.4829 26.6754 94.2129 26.3963 94.7597 25.8823ZM90.2788 22.6826H94.0766C94.1178 22.0494 93.9854 21.4169 93.6936 20.8521C93.5236 20.6181 93.2977 20.4293 93.0362 20.3027C92.7747 20.1761 92.4856 20.1155 92.1947 20.1264C91.0117 20.1264 90.3459 20.9835 90.2788 22.6826Z" fill="#222222"/>
<path d="M101.523 19.3325L101.123 20.3053H99.392V25.5997C99.392 26.5068 99.6423 26.8203 100.458 26.8203C100.74 26.8353 101.021 26.7785 101.275 26.6554L101.458 27.4803C101.004 27.7087 100.501 27.8221 99.9921 27.8102C99.6183 27.8173 99.2479 27.7384 98.9101 27.5795C98.3273 27.2989 98.1109 26.7718 98.1109 25.9469V20.3046H97.0289V19.3318H98.1109C98.1109 18.5405 98.2444 17.2541 98.2444 17.2541L99.6105 16.957C99.512 17.7451 99.4564 18.5378 99.4439 19.3318L101.523 19.3325Z" fill="#222222"/>
<path d="M21.5663 0H2.28028C1.81534 0.000189371 1.36951 0.183201 1.04081 0.508792C0.712114 0.834382 0.527466 1.2759 0.527466 1.73625V13.4494C2.04224 12.3066 3.93572 10.7146 7.35262 11.5496C10.2978 12.2688 10.9398 14.5164 15.5973 17.0697C18.4487 18.6331 21.1241 17.4268 23.3191 16.1641V1.73625C23.3191 1.27577 23.1344 0.834149 22.8055 0.508538C22.4767 0.182927 22.0306 0 21.5656 0" fill="#1A833B"/>
<path d="M17.1034 22.2911C16.2271 22.1829 15.3897 21.8687 14.661 21.3748C13.0286 20.3749 11.4641 18.7465 8.13662 17.036C5.48576 15.7604 2.89982 16.7331 0.530273 18.0701V31.1995C0.530465 31.6598 0.715201 32.1011 1.04388 32.4265C1.37255 32.752 1.81827 32.9349 2.28309 32.9351H21.5684C22.0333 32.9351 22.4792 32.7523 22.8081 32.4268C23.1369 32.1013 23.3217 31.6599 23.3219 31.1995V20.4963C21.2633 21.6648 19.2868 22.614 17.1056 22.2911" fill="#00509C"/>
<path d="M15.5973 17.0663C10.939 14.513 10.2971 12.2654 7.35262 11.5462C3.93572 10.7113 2.0408 12.3054 0.527466 13.446V15.8086V18.0698C2.89701 16.7328 5.5183 15.6915 8.13382 17.0356C11.462 18.7462 13.0266 20.3767 14.6582 21.3745C15.398 21.8469 16.2303 22.1592 17.1006 22.2908C19.2826 22.6137 21.259 21.6645 23.3169 20.496L23.3119 18.4069L23.3169 16.1607C21.122 17.4235 18.4466 18.6298 15.5952 17.0663" fill="white"/>
</g>
<defs>
<clipPath id="clip0_30_529">
<rect width="100.995" height="32.936" fill="white" transform="translate(0.527466)"/>
</clipPath>
</defs>
</svg>
